<?xml version="1.0" encoding="UTF-8"?>
<svg version="1.1" xmlns="http://www.w3.org/2000/svg" width="592" height="600">
<path d="M0 0 C195.36 0 390.72 0 592 0 C592 198 592 396 592 600 C396.64 600 201.28 600 0 600 C0 402 0 204 0 0 Z " fill="#262523" transform="translate(0,0)"/>
<path d="M0 0 C195.36 0 390.72 0 592 0 C592 198 592 396 592 600 C396.64 600 201.28 600 0 600 C0 402 0 204 0 0 Z M252 68 C250.81301514 68.20085205 250.81301514 68.20085205 249.60205078 68.40576172 C213.55425787 74.5898809 177.6528739 89.58403551 148 111 C146.98164063 111.72574219 145.96328125 112.45148438 144.9140625 113.19921875 C125.97632105 127.04216099 108.06333799 143.34933743 94.21044922 162.34521484 C93.00552907 163.99244131 91.77300818 165.61571141 90.53515625 167.23828125 C75.90209617 186.71628541 65.30470549 208.77825124 57.4375 231.75 C57.09041992 232.7500708 56.74333984 233.7501416 56.38574219 234.78051758 C54.52827437 240.42102818 53.61308249 245.06257499 54 251 C53.34 251 52.68 251 52 251 C51.35142217 254.83287415 50.70663775 258.66637738 50.0625 262.5 C49.88009766 263.57765625 49.69769531 264.6553125 49.50976562 265.765625 C48.99393589 268.84184594 48.49376569 271.92016951 48 275 C47.79761719 276.2478125 47.59523437 277.495625 47.38671875 278.78125 C42.33934616 322.22129053 51.92891309 368.64222558 74.08984375 406.203125 C75.05771497 408.11394373 75.56059404 409.90935268 76 412 C76.66 412 77.32 412 78 412 C78.25652344 412.87398438 78.51304688 413.74796875 78.77734375 414.6484375 C86.80975809 436.6670046 109.94606465 460.20285299 128 475 C128.76054687 475.68320312 129.52109375 476.36640625 130.3046875 477.0703125 C162.4266423 505.28176845 203.40208057 523.51286113 245 532.1875 C245.73395996 532.3426709 246.46791992 532.4978418 247.22412109 532.65771484 C262.7663025 535.71546647 278.24483328 536.32482204 294.04174805 536.26074219 C297.19404159 536.24997766 300.34576997 536.26072769 303.49804688 536.2734375 C314.51960021 536.28193164 325.12117174 535.90445677 336 534 C337.09707275 533.81775879 338.19414551 533.63551758 339.32446289 533.44775391 C352.54564692 531.1761815 365.32317809 528.39131739 378 524 C379.24523437 523.61070312 380.49046875 523.22140625 381.7734375 522.8203125 C390.90058578 519.94102655 399.46259657 516.28349791 408 512 C408.87785156 511.56236328 409.75570313 511.12472656 410.66015625 510.67382812 C422.97264877 504.50083018 434.82648189 498.06976308 446 490 C447.01835937 489.27425781 448.03671875 488.54851562 449.0859375 487.80078125 C466.54896191 475.03581459 482.82379506 460.19735002 496 443 C497.08474609 441.62328125 497.08474609 441.62328125 498.19140625 440.21875 C504.39944116 432.18609266 509.79185155 423.70592192 515 415 C515.38978027 414.35111816 515.77956055 413.70223633 516.18115234 413.03369141 C518.29124199 409.74072577 518.29124199 409.74072577 519 406 C519.66 406 520.32 406 521 406 C523.61832613 400.95037103 525.88621429 395.89957171 527.94140625 390.59765625 C528.98241715 388.04314612 530.16189257 385.60159951 531.375 383.125 C536.49875026 371.94734173 539.51370105 359.70497327 542.25 347.75 C542.40090088 347.10345459 542.55180176 346.45690918 542.70727539 345.79077148 C545.77669487 331.66798336 546.34751565 317.63550225 546.31567383 303.23828125 C546.31251896 300.26785337 546.33605206 297.29843043 546.36132812 294.328125 C546.56895483 272.68752111 546.56895483 272.68752111 541 252 C540.69020097 250.59134117 540.42046398 249.17338432 540.1875 247.75 C533.75875796 214.52665373 516.66927425 182.71997343 495 157 C494.33315186 156.19997559 494.33315186 156.19997559 493.65283203 155.38378906 C480.87340841 140.07239143 466.82477163 127.08191321 451 115 C450.15260254 114.3512793 450.15260254 114.3512793 449.28808594 113.68945312 C440.39924597 106.94619522 431.03860188 101.43005458 421.203125 96.18164062 C419.09382057 95.05032043 416.99865263 93.89659475 414.90625 92.734375 C408.60519734 89.25940208 402.36870474 86.15601452 395.52734375 83.85546875 C393.05258046 83.01779772 390.6622389 82.0646288 388.25 81.0625 C376.75363545 76.44584967 365.13667495 73.10032246 353.0559082 70.453125 C351.649091 70.14306055 350.24402756 69.82495969 348.84057617 69.5 C317.92831774 62.39793997 283.14335842 62.32915665 252 68 Z " fill="#252422" transform="translate(0,0)"/>
<path d="M0 0 C0.6609668 0.1973877 1.32193359 0.39477539 2.00292969 0.59814453 C6.68967639 2.00328964 11.3463716 3.48901899 16 5 C17.67835938 5.52787109 17.67835938 5.52787109 19.390625 6.06640625 C24.47372766 7.69478713 29.29162495 9.42179164 33.98828125 11.97265625 C36.27093682 13.13836191 38.61820136 14.11380015 40.97680664 15.11401367 C57.91955417 22.53349368 73.26939492 31.85526836 88 43 C88.51997559 43.38849121 89.03995117 43.77698242 89.57568359 44.17724609 C128.13352704 73.08709566 156.43124983 112.40580308 172 158 C172.3398291 158.99410889 172.3398291 158.99410889 172.68652344 160.00830078 C175.95797224 169.74254062 177.80756227 179.53799805 179.4375 189.65234375 C179.75834231 191.56180109 180.09551647 193.46907391 180.4818573 195.36636353 C181.7570321 201.78581241 182.30750013 207.89701697 182.30078125 214.43359375 C182.30506638 215.39161392 182.3093515 216.34963409 182.31376648 217.33668518 C182.31946801 219.35262265 182.32004119 221.36858068 182.31567383 223.38452148 C182.31253971 226.39930296 182.33593685 229.41307549 182.36132812 232.42773438 C182.41928694 249.74845592 180.26937541 266.194816 176.0625 283 C175.82337891 284.00160156 175.58425781 285.00320313 175.33789062 286.03515625 C173.06326634 295.33770938 170.51193551 304.54678629 166.01757812 313.04296875 C164.07729046 316.77457767 162.44241649 320.65131954 160.75 324.5 C160.38648438 325.32242187 160.02296875 326.14484375 159.6484375 326.9921875 C158.76390192 328.99403119 157.88170324 330.9969072 157 333 C156.34 333 155.68 333 155 333 C154.64421875 334.25296875 154.64421875 334.25296875 154.28125 335.53125 C152.79277697 339.56101844 150.8075071 342.89603651 148.5 346.5 C148.05857666 347.19561035 147.61715332 347.8912207 147.16235352 348.60791016 C140.191096 359.49053623 132.82933817 369.53641826 124 379 C122.91217774 380.26699298 121.82867103 381.53770696 120.75 382.8125 C112.34990722 392.41816165 103.15879088 401.27574997 93 409 C92.04746338 409.72654785 92.04746338 409.72654785 91.07568359 410.46777344 C70.24375186 426.24586203 47.37431577 438.56700209 23 448 C22.02546875 448.39445312 21.0509375 448.78890625 20.046875 449.1953125 C-3.0427372 458.06306211 -29.01571407 463.08479142 -53.73046875 463.203125 C-54.7160527 463.21009399 -55.70163666 463.21706299 -56.71708679 463.22424316 C-59.87393523 463.24151773 -63.0306063 463.24796086 -66.1875 463.25 C-67.80196014 463.25151062 -67.80196014 463.25151062 -69.44903564 463.25305176 C-84.83530751 463.24329381 -99.85072115 462.95357351 -115 460 C-116.17320801 459.7831958 -116.17320801 459.7831958 -117.37011719 459.56201172 C-122.63485975 458.57034244 -127.82076004 457.36737377 -133 456 C-134.16595703 455.69304199 -134.16595703 455.69304199 -135.35546875 455.37988281 C-181.25209519 443.01883487 -227.34870386 416.98365183 -258 380 C-258.78246094 379.11699219 -259.56492187 378.23398437 -260.37109375 377.32421875 C-266.19705164 370.71038586 -271.43706978 363.77742198 -276.5 356.5625 C-277.09949463 355.71010742 -277.69898926 354.85771484 -278.31665039 353.97949219 C-286 342.88606131 -286 342.88606131 -286 339 C-286.66 339 -287.32 339 -288 339 C-288.41378906 338.00613281 -288.82757813 337.01226562 -289.25390625 335.98828125 C-290.97851697 331.96351524 -292.94319712 328.0836765 -294.9375 324.1875 C-297.94798468 318.22383422 -300.69539432 312.2763729 -303 306 C-303.37511719 305.05125 -303.75023437 304.1025 -304.13671875 303.125 C-319.48405591 262.84429173 -320.45052609 219.84865868 -312 178 C-311.34 178 -310.68 178 -310 178 C-310.07089844 176.91203125 -310.14179688 175.8240625 -310.21484375 174.703125 C-310.20364085 169.03196942 -308.40539335 164.06126485 -306.5625 158.75 C-306.20269043 157.69731934 -305.84288086 156.64463867 -305.47216797 155.56005859 C-295.72835912 127.6815887 -281.30765685 102.36559146 -262 80 C-261.33097656 79.22011719 -260.66195312 78.44023437 -259.97265625 77.63671875 C-249.93053395 66.21076582 -239.1553766 55.17504678 -227 46 C-226.36787598 45.51853516 -225.73575195 45.03707031 -225.08447266 44.54101562 C-191.52755249 19.12123822 -153.30779892 2.88693058 -112 -5 C-111.07880371 -5.17789063 -110.15760742 -5.35578125 -109.20849609 -5.5390625 C-74.34475677 -11.90202633 -33.94747632 -10.27456878 0 0 Z M-98 13 C-99.13179687 13.13277344 -100.26359375 13.26554687 -101.4296875 13.40234375 C-141.02870411 18.29398698 -179.68900675 34.29284928 -211 59 C-211.97066406 59.75925781 -212.94132812 60.51851562 -213.94140625 61.30078125 C-238.4064074 80.89366268 -258.57416103 104.09961947 -273 132 C-273.3722168 132.71317383 -273.74443359 133.42634766 -274.12792969 134.16113281 C-283.39637817 152.13702394 -289.85691252 171.02234548 -293 191 C-293.35920637 192.62856402 -293.73176639 194.25431578 -294.125 195.875 C-296.32544943 205.5979446 -296.24031694 215.57955811 -296.25 225.5 C-296.25100708 226.21844086 -296.25201416 226.93688171 -296.25305176 227.67709351 C-296.24370714 237.61276077 -295.85828281 247.42860582 -294.75 257.3125 C-294.58612793 258.8284375 -294.58612793 258.8284375 -294.41894531 260.375 C-293.62101344 266.6495509 -292.03640058 272.3196804 -289.93212891 278.27856445 C-288.7794314 281.64397019 -288.04573962 284.9575215 -287.3125 288.4375 C-284.27672276 301.61434347 -278.10958538 314.00299598 -272 326 C-271.34 326 -270.68 326 -270 326 C-269.73960937 326.86882812 -269.47921875 327.73765625 -269.2109375 328.6328125 C-263.33977904 344.95842087 -249.54344238 360.05064943 -237.62011719 372.32861328 C-236.50210664 373.48200391 -235.39118375 374.64229247 -234.28613281 375.80810547 C-215.72231279 395.38625832 -193.55763055 410.82249747 -169 422 C-168.18241211 422.37253906 -167.36482422 422.74507813 -166.52246094 423.12890625 C-155.2351255 428.22017925 -143.96371975 432.78207676 -132 436 C-131.23316895 436.21108398 -130.46633789 436.42216797 -129.67626953 436.63964844 C-80.16103116 450.06049514 -21.83599769 447.94223926 24.9453125 425.95703125 C26.62474562 425.17478579 28.33079849 424.44991384 30.04296875 423.7421875 C43.5999216 417.95238896 57.14001018 410.7736182 69 402 C70.02609375 401.24460937 71.0521875 400.48921875 72.109375 399.7109375 C88.04416031 387.79040477 102.7287987 374.73397415 115 359 C115.74121094 358.05253906 116.48242188 357.10507812 117.24609375 356.12890625 C121.41503535 350.68832908 125.33227186 345.12206776 129.0625 339.375 C129.45695312 338.77067139 129.85140625 338.16634277 130.2578125 337.54370117 C132.3434145 334.51356157 132.3434145 334.51356157 133 331 C133.66 331 134.32 331 135 331 C135.40605469 330.00742187 135.81210937 329.01484375 136.23046875 327.9921875 C137.68023973 324.60684063 139.3690318 321.41936947 141.15966797 318.2043457 C148.04754797 305.78078069 152.72216851 293.11210774 155.359375 279.1484375 C156 276 156 276 156.98046875 272.578125 C158.03941287 268.86167743 158.83618321 265.17010032 159.5625 261.375 C159.81128906 260.10398437 160.06007813 258.83296875 160.31640625 257.5234375 C168.98164093 205.52603271 154.50372211 151.83995041 124.875 108.921875 C122.96047367 106.24452958 121.00021952 103.61378379 119 101 C118.10087891 99.81083984 118.10087891 99.81083984 117.18359375 98.59765625 C109.1396868 88.23629803 100.16294574 78.31513743 90 70 C89.13375 69.2575 88.2675 68.515 87.375 67.75 C74.74841861 57.00397328 61.70864253 47.6894953 47 40 C46.32791504 39.64808594 45.65583008 39.29617187 44.96337891 38.93359375 C0.83094744 16.00545778 -48.462994 5.84465469 -98 13 Z " fill="#F9F9F9" transform="translate(364,73)"/>
<path d="M0 0 C2.87802695 0.04152274 2.87802695 0.04152274 5.25 -0.1875 C11.57910214 0.24402969 16.77886117 3.46999735 21 8 C21 10.31 21 12.62 21 15 C28.92 15 36.84 15 45 15 C45.33 12.69 45.66 10.38 46 8 C47.94845566 4.54464517 50.70862847 2.19424769 54 0 C59.27741041 -0.71249183 63.70887994 -0.64556003 68.5 1.75 C73.71487848 6.44339063 73.71487848 6.44339063 74.43359375 10.3671875 C74.44250572 16.08867338 73.92266447 19.51695489 70 24 C67 26 67 26 63 26 C63.0314209 27.8394519 63.0314209 27.8394519 63.06347656 29.71606445 C63.13582066 34.26135604 63.18177934 38.80659667 63.21972656 43.35229492 C63.23985481 45.3204809 63.26716019 47.28860699 63.30175781 49.2565918 C63.35022311 52.0839718 63.37295618 54.91056201 63.390625 57.73828125 C63.41127014 58.61962234 63.43191528 59.50096344 63.45318604 60.40901184 C63.4553915 66.39945246 63.4553915 66.39945246 61.4375 69.06054688 C58.06095247 70.36192457 55.22665249 70.33603158 51.609375 70.29296875 C50.90476135 70.28872391 50.20014771 70.28447906 49.47418213 70.28010559 C47.23239288 70.26336538 44.99151569 70.22572404 42.75 70.1875 C41.22657552 70.17244704 39.70313689 70.1587597 38.1796875 70.14648438 C34.45283059 70.11347791 30.72650437 70.06172854 27 70 C26.505 71.98 26.505 71.98 26 74 C25.67 73.01 25.34 72.02 25 71 C22.03 70.505 22.03 70.505 19 70 C18.505 71.98 18.505 71.98 18 74 C17.67 72.68 17.34 71.36 17 70 C16.01604248 70.01571045 15.03208496 70.0314209 14.01831055 70.04760742 C10.36751492 70.10190978 6.71675499 70.13635085 3.06567383 70.16479492 C1.48553464 70.17988094 -0.09456269 70.2003525 -1.67456055 70.22631836 C-3.94590585 70.26271126 -6.21669759 70.27972762 -8.48828125 70.29296875 C-9.54780754 70.31619453 -9.54780754 70.31619453 -10.6287384 70.33988953 C-15.52885214 70.34157068 -15.52885214 70.34157068 -17.68536377 68.77815247 C-19.39587576 66.46454583 -19.38595403 65.07225714 -19.40405273 62.20898438 C-19.41673691 61.2378772 -19.42942108 60.26677002 -19.44248962 59.26623535 C-19.43955399 58.21931519 -19.43661835 57.17239502 -19.43359375 56.09375 C-19.4388356 55.01750366 -19.44407745 53.94125732 -19.44947815 52.83239746 C-19.45590394 50.55607975 -19.4545542 48.27972885 -19.44604492 46.00341797 C-19.43753268 42.5133986 -19.46629404 39.02501391 -19.49804688 35.53515625 C-19.49965883 33.32552133 -19.49908147 31.11588349 -19.49609375 28.90625 C-19.50732773 27.85932983 -19.51856171 26.81240967 -19.53013611 25.73376465 C-19.52075516 24.76265747 -19.51137421 23.79155029 -19.50170898 22.79101562 C-19.50145973 21.50886169 -19.50145973 21.50886169 -19.50120544 20.20080566 C-19 18 -19 18 -17.17176819 16.21228027 C-14.3389709 14.63101378 -12.19136426 14.78240698 -9 15 C-9.04640625 14.16855469 -9.0928125 13.33710938 -9.140625 12.48046875 C-9.17671875 11.39378906 -9.2128125 10.30710938 -9.25 9.1875 C-9.29640625 8.10855469 -9.3428125 7.02960938 -9.390625 5.91796875 C-9 3 -9 3 -7.14453125 1.125 C-4.55035072 -0.23588159 -2.89534414 -0.22271878 0 0 Z " fill="#363534" transform="translate(275,151)"/>
<path d="M0 0 C5.28 0 10.56 0 16 0 C19.74068815 3.84756495 21.5539569 6.41040953 24 11 C25.12570483 12.85972746 26.28357562 14.69659551 27.44580078 16.53369141 C28.27934061 17.85365401 29.10445363 19.17897277 29.92138672 20.50927734 C33.93060485 27.0248313 38.27694649 33.29569386 42.7097168 39.52929688 C45.57934248 43.63113502 47.55206663 47.15847279 49 52 C49.99 52.495 49.99 52.495 51 53 C50.83734146 52.44213806 50.67468292 51.88427612 50.50709534 51.30950928 C49.95916304 48.81401259 49.879892 46.60190229 49.88647461 44.04785156 C49.88655014 43.06713684 49.88662567 42.08642212 49.88670349 41.07598877 C49.89186478 40.02481873 49.89702606 38.97364868 49.90234375 37.890625 C49.9037587 36.80867859 49.90517365 35.72673218 49.90663147 34.61199951 C49.91222682 31.1579715 49.9247785 27.70400841 49.9375 24.25 C49.9425156 21.90755302 49.9470784 19.56510502 49.95117188 17.22265625 C49.96219472 11.4817487 49.97892826 5.74087899 50 0 C52.31243792 -0.02685412 54.6249627 -0.04632841 56.9375 -0.0625 C58.22527344 -0.07410156 59.51304687 -0.08570313 60.83984375 -0.09765625 C64 0 64 0 65 1 C65.09436529 3.23929886 65.11742327 5.4816175 65.11352539 7.72290039 C65.11367142 8.4253035 65.11381744 9.1277066 65.1139679 9.85139465 C65.11326872 12.18351278 65.10547617 14.515552 65.09765625 16.84765625 C65.09579208 18.46048438 65.09436818 20.07331307 65.09336853 21.68614197 C65.08954323 25.93915357 65.07971285 30.19213124 65.06866455 34.44512939 C65.05845069 38.7817743 65.05387096 43.11842467 65.04882812 47.45507812 C65.03809059 55.97006942 65.0204937 64.48502659 65 73 C59.06 73 53.12 73 47 73 C46.01 70.69 45.02 68.38 44 66 C42.97241714 64.11656713 42.97241714 64.11656713 41.90283203 62.57836914 C41.51878204 62.00409683 41.13473206 61.42982452 40.73904419 60.83815002 C40.33273773 60.24316208 39.92643127 59.64817413 39.5078125 59.03515625 C39.07999481 58.39815292 38.65217712 57.7611496 38.21139526 57.10484314 C36.85472581 55.08698305 35.49023823 53.07457002 34.125 51.0625 C19 28.65579257 19 28.65579257 19 26 C17.68 25.67 16.36 25.34 15 25 C15 40.84 15 56.68 15 73 C10.05 73 5.1 73 0 73 C0 48.91 0 24.82 0 0 Z " fill="#FAFAFA" transform="translate(248,285)"/>
<path d="M0 0 C5.94 0 11.88 0 18 0 C18.825 2.413125 19.65 4.82625 20.5 7.3125 C20.76103516 8.06829346 21.02207031 8.82408691 21.29101562 9.6027832 C22.27717698 12.52487323 23 14.89614406 23 18 C23.99 18.33 24.98 18.66 26 19 C26.95483254 21.34667307 27.72559738 23.58028536 28.4375 26 C29.79184571 30.35530146 31.13836337 34.56960568 33.125 38.6875 C34.69649014 42.01756245 35.57627699 45.21824645 36.375 48.8125 C37.67924865 54.51039076 39.9487129 59.2221508 42.79296875 64.30859375 C44 67 44 67 44 72 C39.05 72 34.1 72 29 72 C27.99600476 69.37646482 26.99665555 66.75132205 26 64.125 C25.71382812 63.37863281 25.42765625 62.63226563 25.1328125 61.86328125 C23 56.2265625 23 56.2265625 23 54 C13.43 54 3.86 54 -6 54 C-6.66 56.97 -7.32 59.94 -8 63 C-8.90943362 66.04117939 -9.95289477 69.00147138 -11 72 C-16.28 72 -21.56 72 -27 72 C-25.307855 65.23141999 -23.38036773 58.73302668 -20.625 52.3125 C-18.12517031 46.4845838 -16.13841509 40.57765531 -14.2109375 34.54296875 C-12.97872698 30.93775926 -11.50459783 27.49869148 -10 24 C-9.37384586 22.11131464 -8.76874661 20.21548549 -8.1875 18.3125 C-6.08464995 11.84030395 -3.15499553 6.02317329 0 0 Z " fill="#F5F5F4" transform="translate(187,286)"/>
<path d="M0 0 C2.87802695 0.04152274 2.87802695 0.04152274 5.25 -0.1875 C11.57910214 0.24402969 16.77886117 3.46999735 21 8 C21 10.31 21 12.62 21 15 C28.92 15 36.84 15 45 15 C45.33 12.69 45.66 10.38 46 8 C47.94845566 4.54464517 50.70862847 2.19424769 54 0 C59.27741041 -0.71249183 63.70887994 -0.64556003 68.5 1.75 C73.71487848 6.44339063 73.71487848 6.44339063 74.43359375 10.3671875 C74.44250572 16.08867338 73.92266447 19.51695489 70 24 C67 26 67 26 63 26 C63.0314209 27.8394519 63.0314209 27.8394519 63.06347656 29.71606445 C63.13582066 34.26135604 63.18177934 38.80659667 63.21972656 43.35229492 C63.23985481 45.3204809 63.26716019 47.28860699 63.30175781 49.2565918 C63.35022311 52.0839718 63.37295618 54.91056201 63.390625 57.73828125 C63.41127014 58.61962234 63.43191528 59.50096344 63.45318604 60.40901184 C63.4553915 66.39945246 63.4553915 66.39945246 61.4375 69.06054688 C58.06095247 70.36192457 55.22665249 70.33603158 51.609375 70.29296875 C50.90476135 70.28872391 50.20014771 70.28447906 49.47418213 70.28010559 C47.23239288 70.26336538 44.99151569 70.22572404 42.75 70.1875 C41.22657552 70.17244704 39.70313689 70.1587597 38.1796875 70.14648438 C34.45283059 70.11347791 30.72650437 70.06172854 27 70 C26.505 71.98 26.505 71.98 26 74 C25.67 73.01 25.34 72.02 25 71 C22.03 70.505 22.03 70.505 19 70 C18.505 71.98 18.505 71.98 18 74 C17.67 72.68 17.34 71.36 17 70 C16.01604248 70.01571045 15.03208496 70.0314209 14.01831055 70.04760742 C10.36751492 70.10190978 6.71675499 70.13635085 3.06567383 70.16479492 C1.48553464 70.17988094 -0.09456269 70.2003525 -1.67456055 70.22631836 C-3.94590585 70.26271126 -6.21669759 70.27972762 -8.48828125 70.29296875 C-9.54780754 70.31619453 -9.54780754 70.31619453 -10.6287384 70.33988953 C-15.52885214 70.34157068 -15.52885214 70.34157068 -17.68536377 68.77815247 C-19.39587576 66.46454583 -19.38595403 65.07225714 -19.40405273 62.20898438 C-19.41673691 61.2378772 -19.42942108 60.26677002 -19.44248962 59.26623535 C-19.43955399 58.21931519 -19.43661835 57.17239502 -19.43359375 56.09375 C-19.4388356 55.01750366 -19.44407745 53.94125732 -19.44947815 52.83239746 C-19.45590394 50.55607975 -19.4545542 48.27972885 -19.44604492 46.00341797 C-19.43753268 42.5133986 -19.46629404 39.02501391 -19.49804688 35.53515625 C-19.49965883 33.32552133 -19.49908147 31.11588349 -19.49609375 28.90625 C-19.50732773 27.85932983 -19.51856171 26.81240967 -19.53013611 25.73376465 C-19.52075516 24.76265747 -19.51137421 23.79155029 -19.50170898 22.79101562 C-19.50145973 21.50886169 -19.50145973 21.50886169 -19.50120544 20.20080566 C-19 18 -19 18 -17.17176819 16.21228027 C-14.3389709 14.63101378 -12.19136426 14.78240698 -9 15 C-9.04640625 14.16855469 -9.0928125 13.33710938 -9.140625 12.48046875 C-9.17671875 11.39378906 -9.2128125 10.30710938 -9.25 9.1875 C-9.29640625 8.10855469 -9.3428125 7.02960938 -9.390625 5.91796875 C-9 3 -9 3 -7.14453125 1.125 C-4.55035072 -0.23588159 -2.89534414 -0.22271878 0 0 Z M-15 17 C-17.16250155 18.75497701 -17.16250155 18.75497701 -17.24050903 20.87295532 C-17.23606781 21.63240448 -17.23162659 22.39185364 -17.22705078 23.17431641 C-17.22680908 24.04709229 -17.22656738 24.91986816 -17.22631836 25.8190918 C-17.21608643 26.73730713 -17.20585449 27.65552246 -17.1953125 28.6015625 C-17.19329834 29.44485107 -17.19128418 30.28813965 -17.18920898 31.15698242 C-17.17872938 34.31304346 -17.15080686 37.46902708 -17.125 40.625 C-17.08375 47.67875 -17.0425 54.7325 -17 62 C8.74 62 34.48 62 61 62 C61 50.45 61 38.9 61 27 C58.36 26.34 55.72 25.68 53 25 C51.14233398 23.07226562 51.14233398 23.07226562 49.80859375 20.90625 C47.61616638 18.15155 46.58527619 17.13210491 43.10986328 16.34765625 C39.72892012 16.21405814 36.43990752 16.30031246 33.0625 16.5 C31.90169922 16.53609375 30.74089844 16.5721875 29.54492188 16.609375 C26.69518387 16.70319354 23.8471565 16.84667519 21 17 C20.67 23.6 20.34 30.2 20 37 C10.76 37 1.52 37 -8 37 C-8.33 30.4 -8.66 23.8 -9 17 C-10.98 17 -12.96 17 -15 17 Z " fill="#929291" transform="translate(275,151)"/>
<path d="M0 0 C4.62 0 9.24 0 14 0 C14.33 11.22 14.66 22.44 15 34 C18.20697799 32.20041937 18.20697799 32.20041937 19.6875 28.875 C21.83444899 24.91707496 24.69567212 22.13391159 27.92578125 19.03515625 C29.89882733 17.09926735 31.70425289 15.09983243 33.5 13 C34.08007812 12.3503125 34.66015625 11.700625 35.2578125 11.03125 C37.04547743 9.01009665 37.04547743 9.01009665 38.6171875 6.71875 C41.04479603 3.65456857 43.00730223 1.33967536 47.01660156 0.65625 C52.03508587 0.31118877 56.99325575 0.59035729 62 1 C58.30870482 6.37874441 54.19475456 10.93882863 49.5625 15.5 C44.03158815 20.94011123 44.03158815 20.94011123 38.6875 26.5625 C38.15511719 27.14128906 37.62273437 27.72007812 37.07421875 28.31640625 C35.64140827 30.22915998 35.64140827 30.22915998 36 34 C36.95013359 35.80933341 36.95013359 35.80933341 38.34375 37.50390625 C38.84430908 38.15665527 39.34486816 38.8094043 39.8605957 39.48193359 C40.40159912 40.16852051 40.94260254 40.85510742 41.5 41.5625 C42.60866308 43.00345237 43.71673469 44.44486001 44.82421875 45.88671875 C45.36868652 46.58974121 45.9131543 47.29276367 46.47412109 48.01708984 C49.74837717 52.2720511 52.87084259 56.63794116 56 61 C56.67417969 61.93199219 57.34835937 62.86398437 58.04296875 63.82421875 C58.68878906 64.72785156 59.33460938 65.63148438 60 66.5625 C60.5775 67.36816406 61.155 68.17382812 61.75 69.00390625 C63 71 63 71 63 73 C57.39 73 51.78 73 46 73 C44.02 69.535 44.02 69.535 42 66 C40.91485672 64.41214205 39.80099383 62.84332195 38.65234375 61.30078125 C38.04712891 60.48416016 37.44191406 59.66753906 36.81835938 58.82617188 C36.19767578 57.99666016 35.57699219 57.16714844 34.9375 56.3125 C34.31294922 55.47138672 33.68839844 54.63027344 33.04492188 53.76367188 C29.71884013 49.27406838 29.71884013 49.27406838 26.29907227 44.85620117 C25 43 25 43 25 41 C23.70756532 42.1241176 22.41607925 43.24932592 21.125 44.375 C20.40570313 45.00148438 19.68640625 45.62796875 18.9453125 46.2734375 C15.87024248 48.76069907 15.87024248 48.76069907 14.68115234 52.33837891 C14.64973145 53.29147949 14.61831055 54.24458008 14.5859375 55.2265625 C14.52792969 56.7734375 14.52792969 56.7734375 14.46875 58.3515625 C14.4378125 59.43179688 14.406875 60.51203125 14.375 61.625 C14.31699219 63.25695312 14.31699219 63.25695312 14.2578125 64.921875 C14.16334154 67.61429745 14.08057419 70.30712584 14 73 C9.38 73 4.76 73 0 73 C0 48.91 0 24.82 0 0 Z " fill="#F4F4F4" transform="translate(370,285)"/>
<path d="M0 0 C4.62 0 9.24 0 14 0 C15 1 15 1 15.12025452 3.85365295 C15.1169236 5.76893044 15.1169236 5.76893044 15.11352539 7.72290039 C15.11367142 8.4253035 15.11381744 9.1277066 15.1139679 9.85139465 C15.11326872 12.18351278 15.10547617 14.515552 15.09765625 16.84765625 C15.09579208 18.46048438 15.09436818 20.07331307 15.09336853 21.68614197 C15.08954323 25.93915357 15.07971285 30.19213124 15.06866455 34.44512939 C15.05845069 38.7817743 15.05387096 43.11842467 15.04882812 47.45507812 C15.03809059 55.97006942 15.0204937 64.48502659 15 73 C10.05 73 5.1 73 0 73 C0 48.91 0 24.82 0 0 Z " fill="#ECEBEB" transform="translate(334,285)"/>
<path d="M0 0 C1.32 0 2.64 0 4 0 C4 0.66 4 1.32 4 2 C4.5775 1.67 5.155 1.34 5.75 1 C8 0 8 0 12 0 C12 0.66 12 1.32 12 2 C12.99 2 13.98 2 15 2 C15 1.34 15 0.68 15 0 C16.65 0 18.3 0 20 0 C20 1.98 20 3.96 20 6 C21.98 6 23.96 6 26 6 C26 14.91 26 23.82 26 33 C17.42 33 8.84 33 0 33 C0 22.11 0 11.22 0 0 Z " fill="#3C3B3A" transform="translate(268,155)"/>
<path d="M0 0 C0.33 0 0.66 0 1 0 C1 13.86 1 27.72 1 42 C27.4 42 53.8 42 81 42 C81 29.79 81 17.58 81 5 C81.99 5.33 82.98 5.66 84 6 C83.34 6 82.68 6 82 6 C82.0314209 7.8394519 82.0314209 7.8394519 82.06347656 9.71606445 C82.13582066 14.26135604 82.18177934 18.80659667 82.21972656 23.35229492 C82.23985481 25.3204809 82.26716019 27.28860699 82.30175781 29.2565918 C82.35022311 32.0839718 82.37295618 34.91056201 82.390625 37.73828125 C82.41127014 38.61962234 82.43191528 39.50096344 82.45318604 40.40901184 C82.4553915 46.39945246 82.4553915 46.39945246 80.4375 49.06054688 C77.06095247 50.36192457 74.22665249 50.33603158 70.609375 50.29296875 C69.90476135 50.28872391 69.20014771 50.28447906 68.47418213 50.28010559 C66.23239288 50.26336538 63.99151569 50.22572404 61.75 50.1875 C60.22657552 50.17244704 58.70313689 50.1587597 57.1796875 50.14648438 C53.45283059 50.11347791 49.72650437 50.06172854 46 50 C45.67 51.32 45.34 52.64 45 54 C44.67 53.01 44.34 52.02 44 51 C41.03 50.505 41.03 50.505 38 50 C37.67 51.32 37.34 52.64 37 54 C36.505 52.02 36.505 52.02 36 50 C35.01604248 50.01571045 34.03208496 50.0314209 33.01831055 50.04760742 C29.36751492 50.10190978 25.71675499 50.13635085 22.06567383 50.16479492 C20.48553464 50.17988094 18.90543731 50.2003525 17.32543945 50.22631836 C15.05409415 50.26271126 12.78330241 50.27972762 10.51171875 50.29296875 C9.45219246 50.31619453 9.45219246 50.31619453 8.3712616 50.33988953 C3.46899562 50.34157142 3.46899562 50.34157142 1.31066895 48.76965332 C-0.38205792 46.48414886 -0.36332212 45.17305 -0.34057617 42.3449707 C-0.34034958 41.40422195 -0.34012299 40.46347321 -0.33988953 39.49421692 C-0.32440567 38.48163315 -0.30892181 37.46904938 -0.29296875 36.42578125 C-0.28872391 35.38681198 -0.28447906 34.34784271 -0.28010559 33.27738953 C-0.26329849 29.95549724 -0.22564196 26.63420925 -0.1875 23.3125 C-0.17245582 21.06185771 -0.15876695 18.81120593 -0.14648438 16.56054688 C-0.11338836 11.04015803 -0.06316869 5.52012218 0 0 Z " fill="#A4A4A3" transform="translate(256,171)"/>
<path d="M0 0 C0.66 0 1.32 0 2 0 C2 0.99 2 1.98 2 3 C4.86724686 2.42655063 5.8614515 2.1385485 8 0 C8.33 1.32 8.66 2.64 9 4 C10.65 3.67 12.3 3.34 14 3 C13.67 4.98 13.34 6.96 13 9 C14.32 9.33 15.64 9.66 17 10 C16.01 10.33 15.02 10.66 14 11 C14.33 11.99 14.66 12.98 15 14 C16.485 14.495 16.485 14.495 18 15 C18 15.66 18 16.32 18 17 C16.35 17.33 14.7 17.66 13 18 C13.33 19.32 13.66 20.64 14 22 C12.02 21.67 10.04 21.34 8 21 C7.67 22.32 7.34 23.64 7 25 C6.67 24.34 6.34 23.68 6 23 C3.97536745 22.34786708 3.97536745 22.34786708 2 22 C2 22.99 2 23.98 2 25 C1.34 25 0.68 25 0 25 C0 23.68 0 22.36 0 21 C-1.27200971 22.10281127 -2.54255853 23.20730769 -3.8125 24.3125 C-4.87404297 25.23482422 -4.87404297 25.23482422 -5.95703125 26.17578125 C-7.98689631 27.92525516 -7.98689631 27.92525516 -9.59375 29.75 C-10.0578125 30.1625 -10.521875 30.575 -11 31 C-13.6875 30.6875 -13.6875 30.6875 -16 30 C-14.60249952 26.84164893 -12.94801766 24.67727175 -10.5 22.25 C-9.8915625 21.63640625 -9.283125 21.0228125 -8.65625 20.390625 C-7 19 -7 19 -5 19 C-5 18.34 -5 17.68 -5 17 C-6.32 17 -7.64 17 -9 17 C-8.67 16.01 -8.34 15.02 -8 14 C-7.34 14 -6.68 14 -6 14 C-6 13.01 -6 12.02 -6 11 C-6.66 11 -7.32 11 -8 11 C-8 10.34 -8 9.68 -8 9 C-6.68 9 -5.36 9 -4 9 C-4.33 7.02 -4.66 5.04 -5 3 C-2.525 3.99 -2.525 3.99 0 5 C0 3.35 0 1.7 0 0 Z " fill="#A9A8A7" transform="translate(312,178)"/>
<path d="M0 0 C0.721875 0.103125 1.44375 0.20625 2.1875 0.3125 C2.1875 0.9725 2.1875 1.6325 2.1875 2.3125 C2.8475 2.3125 3.5075 2.3125 4.1875 2.3125 C4.1875 1.6525 4.1875 0.9925 4.1875 0.3125 C6.375 0 6.375 0 9.1875 0.3125 C12.23698889 2.7382298 13.91024901 4.35278505 15 8.125 C15.061875 8.846875 15.12375 9.56875 15.1875 10.3125 C14.1975 10.3125 13.2075 10.3125 12.1875 10.3125 C12.1875 10.9725 12.1875 11.6325 12.1875 12.3125 C13.1775 12.3125 14.1675 12.3125 15.1875 12.3125 C14.92477987 16.16572864 14.61458562 17.87387153 11.875 20.6875 C9.1875 22.3125 9.1875 22.3125 5.1875 22.3125 C5.1875 21.6525 5.1875 20.9925 5.1875 20.3125 C4.1975 20.3125 3.2075 20.3125 2.1875 20.3125 C2.1875 21.3025 2.1875 22.2925 2.1875 23.3125 C-2.20850078 22.81009991 -4.72025631 21.49063935 -7.8125 18.3125 C-8.625 15.0625 -8.625 15.0625 -8.8125 12.3125 C-7.8225 12.3125 -6.8325 12.3125 -5.8125 12.3125 C-5.8125 11.6525 -5.8125 10.9925 -5.8125 10.3125 C-6.8025 10.3125 -7.7925 10.3125 -8.8125 10.3125 C-8.5109013 6.79384855 -7.80644038 5.30492548 -5.5625 2.5 C-2.8125 0.3125 -2.8125 0.3125 0 0 Z " fill="#2B2A28" transform="translate(331.8125,152.6875)"/>
<path d="M0 0 C2 1 2 1 2.83789062 3.17724609 C3.10794922 4.11648926 3.37800781 5.05573242 3.65625 6.0234375 C3.95660156 7.044375 4.25695312 8.0653125 4.56640625 9.1171875 C4.87449219 10.19226563 5.18257812 11.26734375 5.5 12.375 C6.11000055 14.48830736 6.72439688 16.60035218 7.34375 18.7109375 C7.74883789 20.12318604 7.74883789 20.12318604 8.16210938 21.56396484 C8.95729248 24.21100902 8.95729248 24.21100902 11 27 C11 28.32 11 29.64 11 31 C4.4 31 -2.2 31 -9 31 C-8.34147687 26.39033809 -7.73355061 22.6583379 -6.40625 18.3203125 C-6.09816406 17.3096875 -5.79007813 16.2990625 -5.47265625 15.2578125 C-4.99119141 13.70707031 -4.99119141 13.70707031 -4.5 12.125 C-4.01853516 10.53945313 -4.01853516 10.53945313 -3.52734375 8.921875 C-1.13533453 1.13533453 -1.13533453 1.13533453 0 0 Z " fill="#3B3A38" transform="translate(195,299)"/>
<path d="M0 0 C25.74 0 51.48 0 78 0 C78 0.99 78 1.98 78 3 C75.06291999 4.46854 72.10656295 4.13019549 68.88818359 4.11352539 C67.79046883 4.11374443 67.79046883 4.11374443 66.670578 4.1139679 C64.24650124 4.11327003 61.82250088 4.10548354 59.3984375 4.09765625 C57.71977785 4.09579162 56.04111766 4.09436793 54.36245728 4.09336853 C49.94012962 4.08954688 45.51783472 4.07971959 41.09552002 4.06866455 C36.58451785 4.05844286 32.07351041 4.05386928 27.5625 4.04882812 C18.70831893 4.03809702 9.85416219 4.02102481 1 4 C0.67 2.68 0.34 1.36 0 0 Z " fill="#2B2A28" transform="translate(258,215)"/>
<path d="M0 0 C5.625 -0.25 5.625 -0.25 9 2 C9.51953125 4.09375 9.51953125 4.09375 9.8125 6.5 C10.18933721 8.9048339 10.18933721 8.9048339 11 11 C13.98283157 12.69165301 13.98283157 12.69165301 17 13 C16.67 14.65 16.34 16.3 16 18 C7.42 18 -1.16 18 -10 18 C-10.33 16.35 -10.66 14.7 -11 13 C-10 12 -10 12 -6.9375 11.9375 C-5.4834375 11.9684375 -5.4834375 11.9684375 -4 12 C-3.67 8.7 -3.34 5.4 -3 2 C-2.34 2.33 -1.68 2.66 -1 3 C-0.67 2.01 -0.34 1.02 0 0 Z " fill="#757473" transform="translate(294,221)"/>
<path d="M0 0 C1.65 0 3.3 0 5 0 C5.66 1.65 6.32 3.3 7 5 C7.33 3.35 7.66 1.7 8 0 C8.99 0 9.98 0 11 0 C11.33 0.99 11.66 1.98 12 3 C12.33 2.01 12.66 1.02 13 0 C13.99 0 14.98 0 16 0 C16 0.99 16 1.98 16 3 C16.66 3 17.32 3 18 3 C18 2.34 18 1.68 18 1 C18.66 1 19.32 1 20 1 C20.33 1.99 20.66 2.98 21 4 C21.66 2.68 22.32 1.36 23 0 C26 1 26 1 27 3 C27.33 2.01 27.66 1.02 28 0 C28.99 0 29.98 0 31 0 C31 0.99 31 1.98 31 3 C31.66 3 32.32 3 33 3 C33.33 2.01 33.66 1.02 34 0 C34.66 0 35.32 0 36 0 C36.495 1.98 36.495 1.98 37 4 C37.66 2.68 38.32 1.36 39 0 C42 1 42 1 43 3 C43.33 2.01 43.66 1.02 44 0 C46.31 0 48.62 0 51 0 C51 2.31 51 4.62 51 7 C34.17 7 17.34 7 0 7 C0 4.69 0 2.38 0 0 Z " fill="#71706F" transform="translate(294,399)"/>
<path d="M0 0 C4.62 0 9.24 0 14 0 C15 1 15 1 15.12025452 3.85365295 C15.1169236 5.76893044 15.1169236 5.76893044 15.11352539 7.72290039 C15.11367142 8.4253035 15.11381744 9.1277066 15.1139679 9.85139465 C15.11326872 12.18351278 15.10547617 14.515552 15.09765625 16.84765625 C15.09579208 18.46048438 15.09436818 20.07331307 15.09336853 21.68614197 C15.08954323 25.93915357 15.07971285 30.19213124 15.06866455 34.44512939 C15.05845069 38.7817743 15.05387096 43.11842467 15.04882812 47.45507812 C15.03809059 55.97006942 15.0204937 64.48502659 15 73 C9.06 73 3.12 73 -3 73 C-2.505 72.01 -2.505 72.01 -2 71 C2.95 71.33 7.9 71.66 13 72 C13 48.9 13 25.8 13 2 C9.04 2 5.08 2 1 2 C1 17.51 1 33.02 1 49 C0.67 49 0.34 49 0 49 C0 32.83 0 16.66 0 0 Z " fill="#B2B2B1" transform="translate(298,285)"/>
<path d="M0 0 C2.4375 1.5625 2.4375 1.5625 4 4 C4.46337203 8.40203429 4.48038907 10.2794164 2 14 C-0.98098624 14.96105155 -3.87921946 15.16629381 -7 15 C-9.5625 13.5625 -9.5625 13.5625 -11 11 C-11.56609405 8.03247539 -11.39389621 6.10193265 -11 3 C-8.06403859 -0.7580306 -4.50318499 -0.56289812 0 0 Z " fill="#353533" transform="translate(320,183)"/>
<path d="M0 0 C5.28 0 10.56 0 16 0 C16 0.33 16 0.66 16 1 C11.05 1 6.1 1 1 1 C1 24.43 1 47.86 1 72 C5.29 72 9.58 72 14 72 C14 54.84 14 37.68 14 20 C14.66 20 15.32 20 16 20 C16.66 21.98 17.32 23.96 18 26 C17.01 25.67 16.02 25.34 15 25 C15 40.84 15 56.68 15 73 C10.05 73 5.1 73 0 73 C0 48.91 0 24.82 0 0 Z " fill="#AEADAD" transform="translate(248,285)"/>
<path d="M0 0 C3 1 3 1 4 3 C4.33 2.01 4.66 1.02 5 0 C10.61 0 16.22 0 22 0 C21.67 1.32 21.34 2.64 21 4 C21.33 4.99 21.66 5.98 22 7 C14 7 6 7 -2 7 C-1.125 1.125 -1.125 1.125 0 0 Z " fill="#9B9B9A" transform="translate(351,399)"/>
<path d="M0 0 C0.33 0.99 0.66 1.98 1 3 C2.32 2.34 3.64 1.68 5 1 C5.33 1.99 5.66 2.98 6 4 C6.33 3.01 6.66 2.02 7 1 C8.66611905 0.957279 10.33382885 0.95936168 12 1 C13 2 13 2 13 8 C6.4 8 -0.2 8 -7 8 C-7 5.69 -7 3.38 -7 1 C-4.50935112 0.31292445 -2.62113708 0 0 0 Z " fill="#898887" transform="translate(249,398)"/>
<path d="M0 0 C2.66666667 0 5.33333333 0 8 0 C8.7425 -0.061875 9.485 -0.12375 10.25 -0.1875 C16.55730484 0.24254351 21.83804324 3.43199868 26 8 C26.50392339 10.85379774 26.29755617 13.074031 26 16 C25.34 16 24.68 16 24 16 C24 14.02 24 12.04 24 10 C22.02 10 20.04 10 18 10 C18 8.02 18 6.04 18 4 C16.35 4 14.7 4 13 4 C13 4.66 13 5.32 13 6 C12.01 6 11.02 6 10 6 C10 5.34 10 4.68 10 4 C7.69 4.66 5.38 5.32 3 6 C3 5.34 3 4.68 3 4 C1.68 3.67 0.36 3.34 -1 3 C-0.67 2.01 -0.34 1.02 0 0 Z " fill="#9D9D9C" transform="translate(270,151)"/>
<path d="M0 0 C1.65 0 3.3 0 5 0 C5.66 1.65 6.32 3.3 7 5 C7.33 3.35 7.66 1.7 8 0 C8.99 0 9.98 0 11 0 C11.33 0.99 11.66 1.98 12 3 C12.33 2.01 12.66 1.02 13 0 C13.99 0 14.98 0 16 0 C16 0.99 16 1.98 16 3 C16.66 3 17.32 3 18 3 C18 2.34 18 1.68 18 1 C18.66 1 19.32 1 20 1 C20.99 2.98 21.98 4.96 23 7 C15.41 7 7.82 7 0 7 C0 4.69 0 2.38 0 0 Z " fill="#757473" transform="translate(294,399)"/>
<path d="M0 0 C1.65322266 0.01740234 1.65322266 0.01740234 3.33984375 0.03515625 C4.99693359 0.04869141 4.99693359 0.04869141 6.6875 0.0625 C7.54214844 0.07410156 8.39679688 0.08570313 9.27734375 0.09765625 C9.60734375 1.08765625 9.93734375 2.07765625 10.27734375 3.09765625 C10.93734375 2.10765625 11.59734375 1.11765625 12.27734375 0.09765625 C13.26734375 0.42765625 14.25734375 0.75765625 15.27734375 1.09765625 C15.60734375 3.07765625 15.93734375 5.05765625 16.27734375 7.09765625 C13.13152952 7.12654139 9.98574906 7.14441548 6.83984375 7.16015625 C5.4930957 7.17272461 5.4930957 7.17272461 4.11914062 7.18554688 C2.83813477 7.19038086 2.83813477 7.19038086 1.53125 7.1953125 C0.74049072 7.20054932 -0.05026855 7.20578613 -0.86499023 7.21118164 C-2.72265625 7.09765625 -2.72265625 7.09765625 -3.72265625 6.09765625 C-3.84765625 3.59765625 -3.84765625 3.59765625 -3.72265625 1.09765625 C-2.72265625 0.09765625 -2.72265625 0.09765625 0 0 Z " fill="#7C7C7B" transform="translate(224.72265625,398.90234375)"/>
<path d="M0 0 C1.65322266 0.01740234 1.65322266 0.01740234 3.33984375 0.03515625 C4.99693359 0.04869141 4.99693359 0.04869141 6.6875 0.0625 C7.54214844 0.07410156 8.39679688 0.08570313 9.27734375 0.09765625 C9.60734375 1.08765625 9.93734375 2.07765625 10.27734375 3.09765625 C10.93734375 2.10765625 11.59734375 1.11765625 12.27734375 0.09765625 C13.26734375 0.42765625 14.25734375 0.75765625 15.27734375 1.09765625 C15.60734375 3.07765625 15.93734375 5.05765625 16.27734375 7.09765625 C11.98734375 7.09765625 7.69734375 7.09765625 3.27734375 7.09765625 C2.94734375 5.44765625 2.61734375 3.79765625 2.27734375 2.09765625 C0.22463912 3.93954237 0.22463912 3.93954237 -0.72265625 6.09765625 C-0.06265625 6.42765625 0.59734375 6.75765625 1.27734375 7.09765625 C-0.37265625 7.09765625 -2.02265625 7.09765625 -3.72265625 7.09765625 C-3.76519981 5.09810879 -3.76346408 3.09723989 -3.72265625 1.09765625 C-2.72265625 0.09765625 -2.72265625 0.09765625 0 0 Z " fill="#7B7B79" transform="translate(266.72265625,398.90234375)"/>
<path d="M0 0 C0.33 0 0.66 0 1 0 C2.45825603 7.04823748 2.45825603 7.04823748 0.375 11.375 C-2.0706669 14.07810552 -3.47472835 15.18647577 -7 16 C-7.99 15.67 -8.98 15.34 -10 15 C-10 27.21 -10 39.42 -10 52 C-10.33 52 -10.66 52 -11 52 C-11 40.45 -11 28.9 -11 17 C-12.98 17 -14.96 17 -17 17 C-17.66 16.34 -18.32 15.68 -19 15 C-16 14 -16 14 -13 15 C-13 14.01 -13 13.02 -13 12 C-12.01 12 -11.02 12 -10 12 C-10 12.66 -10 13.32 -10 14 C-5.22187526 12.62046126 -5.22187526 12.62046126 -1.8671875 9.2421875 C-1.15326039 7.5301487 -0.56654702 5.76629365 0 4 C-0.99 4 -1.98 4 -3 4 C-3 3.34 -3 2.68 -3 2 C-2.01 2 -1.02 2 0 2 C0 1.34 0 0.68 0 0 Z " fill="#7D7C7B" transform="translate(347,161)"/>
<path d="M0 0 C1.98 0 3.96 0 6 0 C7.13764351 4.26616316 8 7.56486311 8 12 C4.7 12 1.4 12 -2 12 C-1.125 3.375 -1.125 3.375 0 0 Z " fill="#2B2A28" transform="translate(294,221)"/>
<path d="M0 0 C2.9375 0.8125 2.9375 0.8125 4.9375 2.8125 C5.30237512 5.65852594 5.33949375 7.1989306 3.75 9.625 C1.28842224 11.23775784 -0.17315736 11.2459014 -3.0625 10.8125 C-4.875 9.625 -4.875 9.625 -6.0625 7.8125 C-6.4943188 4.93370803 -6.44207373 3.44512288 -4.9375 0.9375 C-3.0625 -0.1875 -3.0625 -0.1875 0 0 Z " fill="#A2A2A1" transform="translate(317.0625,185.1875)"/>
<path d="M0 0 C5.94 0 11.88 0 18 0 C18 0.99 18 1.98 18 3 C16.68 3 15.36 3 14 3 C14 3.99 14 4.98 14 6 C13.360625 5.814375 12.72125 5.62875 12.0625 5.4375 C11.0415625 5.2209375 11.0415625 5.2209375 10 5 C9.67 5.33 9.34 5.66 9 6 C7.48071962 6.07179964 5.95832518 6.08392007 4.4375 6.0625 C3.61121094 6.05347656 2.78492188 6.04445312 1.93359375 6.03515625 C1.29550781 6.02355469 0.65742188 6.01195312 0 6 C0 4.02 0 2.04 0 0 Z " fill="#7D7D7B" transform="translate(328,229)"/>
<path d="M0 0 C5.61 0 11.22 0 17 0 C17 0.99 17 1.98 17 3 C16.01 3 15.02 3 14 3 C13.67 3.99 13.34 4.98 13 6 C8.71 6 4.42 6 0 6 C0 4.02 0 2.04 0 0 Z " fill="#848483" transform="translate(243,156)"/>
<path d="M0 0 C0.66 0.33 1.32 0.66 2 1 C-7.57 10.57 -17.14 20.14 -27 30 C-27.66 29.67 -28.32 29.34 -29 29 C-24.19667363 23.37152776 -19.18379109 18.02884081 -13.9375 12.8125 C-12.9155957 11.78479492 -12.9155957 11.78479492 -11.87304688 10.73632812 C-8.06627819 6.93687311 -4.1931233 3.36889001 0 0 Z " fill="#DBDBDA" transform="translate(132,123)"/>
<path d="M0 0 C4.29 0.33 8.58 0.66 13 1 C13 2.65 13 4.3 13 6 C7.39 6 1.78 6 -4 6 C-3.67 5.01 -3.34 4.02 -3 3 C-2.34 3 -1.68 3 -1 3 C-0.67 2.01 -0.34 1.02 0 0 Z " fill="#757473" transform="translate(266,225)"/>
<path d="M0 0 C0.66 0 1.32 0 2 0 C2.66 1.98 3.32 3.96 4 6 C3.01 5.67 2.02 5.34 1 5 C1 20.84 1 36.68 1 53 C-3.95 53 -8.9 53 -14 53 C-14 52.67 -14 52.34 -14 52 C-9.38 52 -4.76 52 0 52 C0 34.84 0 17.68 0 0 Z " fill="#9D9D9C" transform="translate(262,305)"/>
<path d="M0 0 C1.23556641 0.01740234 1.23556641 0.01740234 2.49609375 0.03515625 C3.32238281 0.04417969 4.14867187 0.05320312 5 0.0625 C5.63808594 0.07410156 6.27617187 0.08570313 6.93359375 0.09765625 C6.74796875 0.69578125 6.56234375 1.29390625 6.37109375 1.91015625 C5.71265688 4.26174387 5.71265688 4.26174387 6.93359375 7.09765625 C3.63359375 7.09765625 0.33359375 7.09765625 -3.06640625 7.09765625 C-3.10894981 5.09810879 -3.10721408 3.09723989 -3.06640625 1.09765625 C-2.06640625 0.09765625 -2.06640625 0.09765625 0 0 Z " fill="#6F6E6D" transform="translate(366.06640625,398.90234375)"/>
<path d="M0 0 C0.33 0 0.66 0 1 0 C1.33 17.16 1.66 34.32 2 52 C1.01 51.67 0.02 51.34 -1 51 C-1.6875 48.9375 -1.6875 48.9375 -2 47 C-1.67 47 -1.34 47 -1 47 C-0.67 31.49 -0.34 15.98 0 0 Z " fill="#535251" transform="translate(297,286)"/>
<path d="M0 0 C2.31 0 4.62 0 7 0 C7 2.31 7 4.62 7 7 C5.37536158 7.05395478 3.75021459 7.09277195 2.125 7.125 C1.22007812 7.14820313 0.31515625 7.17140625 -0.6171875 7.1953125 C-3 7 -3 7 -5 5 C-4.01 5 -3.02 5 -2 5 C-1.34 3.35 -0.68 1.7 0 0 Z " fill="#6E6D6C" transform="translate(338,399)"/>
<path d="M0 0 C-1.3510265 3.01015294 -2.86335687 5.11967466 -5.1875 7.453125 C-5.80367187 8.071875 -6.41984375 8.690625 -7.0546875 9.328125 C-8.01761719 10.27945313 -8.01761719 10.27945313 -9 11.25 C-9.64195312 11.8996875 -10.28390625 12.549375 -10.9453125 13.21875 C-11.56148437 13.83234375 -12.17765625 14.4459375 -12.8125 15.078125 C-13.37582031 15.63918945 -13.93914062 16.20025391 -14.51953125 16.77832031 C-16 18 -16 18 -18 18 C-18 18.66 -18 19.32 -18 20 C-18.66 19.67 -19.32 19.34 -20 19 C-15.92210385 14.14271074 -11.64099815 9.51212574 -7.1875 5 C-6.70756592 4.50717529 -6.22763184 4.01435059 -5.7331543 3.5065918 C-2.23647688 0 -2.23647688 0 0 0 Z " fill="#4E4D4B" transform="translate(140,144)"/>
<path d="M0 0 C0.66 2.64 1.32 5.28 2 8 C-0.97 8 -3.94 8 -7 8 C-7 5.69 -7 3.38 -7 1 C-4.50935112 0.31292445 -2.62113708 0 0 0 Z " fill="#7A7A79" transform="translate(249,398)"/>
<path d="M0 0 C-1.3770812 3.20453675 -2.88542102 4.87751165 -5.56640625 7.06640625 C-9.42268854 10.81070938 -9.84254569 13.82562346 -9.97070312 19.08007812 C-9.95974609 20.02302734 -9.94878906 20.96597656 -9.9375 21.9375 C-9.95361328 22.90751953 -9.96972656 23.87753906 -9.98632812 24.87695312 C-10.02143855 27.25275824 -10.02522354 29.62419832 -10 32 C-10.33 32 -10.66 32 -11 32 C-12.5599933 10.49875896 -12.5599933 10.49875896 -9.06640625 5.46875 C-3.51775568 0 -3.51775568 0 0 0 Z " fill="#5C5B5A" transform="translate(395,326)"/>
<path d="M0 0 C0.99 0 1.98 0 3 0 C3 0.99 3 1.98 3 3 C3.66 3 4.32 3 5 3 C5 2.34 5 1.68 5 1 C5.66 1 6.32 1 7 1 C7.99 2.98 8.98 4.96 10 7 C6.04 7 2.08 7 -2 7 C-1.34 4.69 -0.68 2.38 0 0 Z " fill="#696867" transform="translate(307,399)"/>
<path d="M0 0 C0.66 0.33 1.32 0.66 2 1 C1.46324097 4.85103301 -0.11600923 6.31797587 -3.0625 8.75 C-4.16271484 9.67039063 -4.16271484 9.67039063 -5.28515625 10.609375 C-5.85105469 11.06828125 -6.41695313 11.5271875 -7 12 C-7.66 11.67 -8.32 11.34 -9 11 C-7.59155282 7.78475695 -5.89655214 5.67816132 -3.375 3.25 C-2.74335938 2.63640625 -2.11171875 2.0228125 -1.4609375 1.390625 C-0.73777344 0.70226562 -0.73777344 0.70226562 0 0 Z " fill="#999998" transform="translate(305,197)"/>
<path d="M0 0 C2 2 2 2 2.20254517 3.87295532 C2.18033905 4.63240448 2.15813293 5.39185364 2.13525391 6.17431641 C2.10499619 7.46542831 2.10499619 7.46542831 2.0741272 8.78262329 C2.04193085 9.71287323 2.0097345 10.64312317 1.9765625 11.6015625 C1.95153656 12.55316254 1.92651062 13.50476257 1.90072632 14.48519897 C1.818388 17.53215431 1.72185208 20.57847476 1.625 23.625 C1.56677458 25.68747385 1.50947101 27.74997395 1.453125 29.8125 C1.31278856 34.87536683 1.15971563 39.93770895 1 45 C0.67 45 0.34 45 0 45 C-0.16784025 38.75220534 -0.32780106 32.50424527 -0.48217773 26.25610352 C-0.53568206 24.12877795 -0.59101764 22.00149764 -0.64819336 19.87426758 C-0.72986981 16.8238298 -0.80504681 13.77329203 -0.87890625 10.72265625 C-0.90594131 9.76537125 -0.93297638 8.80808624 -0.96083069 7.8217926 C-0.98092697 6.94095505 -1.00102325 6.06011749 -1.02172852 5.15258789 C-1.04171402 4.37315323 -1.06169952 3.59371857 -1.08229065 2.79066467 C-1 1 -1 1 0 0 Z " fill="#838281" transform="translate(257,168)"/>
<path d="M0 0 C0.33 0 0.66 0 1 0 C1.28875 0.9075 1.5775 1.815 1.875 2.75 C2.76531776 5.32202908 3.71494413 7.61346766 5 10 C4.34 10 3.68 10 3 10 C2.74476563 10.58265625 2.48953125 11.1653125 2.2265625 11.765625 C0.88258913 14.21388223 -0.61810296 15.81743248 -2.625 17.75 C-3.57246094 18.67039063 -3.57246094 18.67039063 -4.5390625 19.609375 C-5.02117187 20.06828125 -5.50328125 20.5271875 -6 21 C-6.99 20.67 -7.98 20.34 -9 20 C-8.4225 19.54109375 -7.845 19.0821875 -7.25 18.609375 C-6.5075 17.99578125 -5.765 17.3821875 -5 16.75 C-4.2575 16.14671875 -3.515 15.5434375 -2.75 14.921875 C-0.55115267 12.94027788 -0.55115267 12.94027788 -1 9 C-0.34 9 0.32 9 1 9 C0.67 6.03 0.34 3.06 0 0 Z " fill="#B6B6B5" transform="translate(307,188)"/>
<path d="M0 0 C0.86625 0.2784375 0.86625 0.2784375 1.75 0.5625 C4.20692525 1.04023546 5.64397534 0.75729364 8 0 C8 0.99 8 1.98 8 3 C7.34 3 6.68 3 6 3 C6.33 4.32 6.66 5.64 7 7 C4.69 7.33 2.38 7.66 0 8 C0 5.36 0 2.72 0 0 Z " fill="#605F5E" transform="translate(300,157)"/>
<path d="M0 0 C1.67542976 0.28604898 3.34385343 0.61781233 5 1 C5.33 2.65 5.66 4.3 6 6 C4.0085944 6.38133299 2.00720923 6.71325582 0 7 C-1 6 -1 6 -1.125 3.5 C-1 1 -1 1 0 0 Z " fill="#323130" transform="translate(314,187)"/>
<path d="M0 0 C1.65 0 3.3 0 5 0 C6 4.75 6 4.75 6 7 C4.02 7 2.04 7 0 7 C0 4.69 0 2.38 0 0 Z " fill="#8D8D8C" transform="translate(284,399)"/>
<path d="M0 0 C4.74559401 -0.37964752 8.06988525 -0.48228172 12.375 1.75 C17.88060493 6.46908994 17.88060493 6.46908994 18.17578125 10.25390625 C18.1863808 12.51161136 18.13001688 14.74637414 18 17 C17.67 17 17.34 17 17 17 C16.91363281 16.40832031 16.82726562 15.81664062 16.73828125 15.20703125 C16.03133489 11.23126869 15.29738317 8.43678154 13 5.0625 C8.89438929 2.23989264 4.88036839 1.63492171 0 1 C0 0.67 0 0.34 0 0 Z " fill="#AAA9A8" transform="translate(331,151)"/>
<path d="M0 0 C2.31 0 4.62 0 7 0 C7 0.99 7 1.98 7 3 C5.02 3 3.04 3 1 3 C1 3.66 1 4.32 1 5 C3.64 5 6.28 5 9 5 C9.33 4.34 9.66 3.68 10 3 C10 3.66 10 4.32 10 5 C10.99 5.33 11.98 5.66 13 6 C8.71 6 4.42 6 0 6 C0 4.02 0 2.04 0 0 Z " fill="#585756" transform="translate(243,156)"/>
<path d="M0 0 C0.99 0.66 1.98 1.32 3 2 C2.67 2.99 2.34 3.98 2 5 C1.443125 4.649375 0.88625 4.29875 0.3125 3.9375 C-2.57159181 2.76827359 -4.05190765 3.14660484 -7 4 C-7.99 4.495 -7.99 4.495 -9 5 C-9.66 4.34 -10.32 3.68 -11 3 C-7.48991846 -0.36967828 -4.74988885 -0.43180808 0 0 Z " fill="#3F3E3D" transform="translate(320,183)"/>
<path d="M0 0 C0.66 0 1.32 0 2 0 C2 1.98 2 3.96 2 6 C-0.31 6 -2.62 6 -5 6 C-5 4.35 -5 2.7 -5 1 C-4.34 1 -3.68 1 -3 1 C-3 1.66 -3 2.32 -3 3 C-2.34 3 -1.68 3 -1 3 C-0.67 2.01 -0.34 1.02 0 0 Z " fill="#ACABAB" transform="translate(328,399)"/>
<path d="M0 0 C1.32 0 2.64 0 4 0 C4 2.31 4 4.62 4 7 C2.35 6.67 0.7 6.34 -1 6 C-1.042721 4.33388095 -1.04063832 2.66617115 -1 1 C-0.67 0.67 -0.34 0.34 0 0 Z " fill="#8E8D8C" transform="translate(222,399)"/>
<path d="M0 0 C1.98 0 3.96 0 6 0 C6.33 2.31 6.66 4.62 7 7 C6.34 7 5.68 7 5 7 C5 6.34 5 5.68 5 5 C3.35 5.33 1.7 5.66 0 6 C0 4 0 2 0 0 Z " fill="#6A6A68" transform="translate(312,224)"/>
<path d="M0 0 C0.33 0 0.66 0 1 0 C1.05447047 1.41623216 1.09300508 2.83308191 1.125 4.25 C1.14820313 5.03890625 1.17140625 5.8278125 1.1953125 6.640625 C0.9828378 9.20731941 0.28654105 10.7916067 -1 13 C-1 12.34 -1 11.68 -1 11 C-2.32 11 -3.64 11 -5 11 C-4.67 10.01 -4.34 9.02 -4 8 C-3.34 8 -2.68 8 -2 8 C-2 7.01 -2 6.02 -2 5 C-2.66 5 -3.32 5 -4 5 C-4 4.34 -4 3.68 -4 3 C-2.68 3 -1.36 3 0 3 C0 2.01 0 1.02 0 0 Z " fill="#858584" transform="translate(308,184)"/>
<path d="M0 0 C2.31 0 4.62 0 7 0 C7 0.99 7 1.98 7 3 C5.02 3 3.04 3 1 3 C1 3.66 1 4.32 1 5 C3.64 5 6.28 5 9 5 C9 5.33 9 5.66 9 6 C6.03 6 3.06 6 0 6 C0 4.02 0 2.04 0 0 Z " fill="#595856" transform="translate(328,229)"/>
<path d="M0 0 C0.99 0.33 1.98 0.66 3 1 C3.33 2.98 3.66 4.96 4 7 C2.02 7 0.04 7 -2 7 C-1.125 1.125 -1.125 1.125 0 0 Z " fill="#959493" transform="translate(279,399)"/>
<path d="M0 0 C0.99 0.33 1.98 0.66 3 1 C3.33 2.98 3.66 4.96 4 7 C2.02 7 0.04 7 -2 7 C-1.125 1.125 -1.125 1.125 0 0 Z " fill="#959493" transform="translate(237,399)"/>
<path d="M0 0 C0 2.31 0 4.62 0 7 C-0.99 6.67 -1.98 6.34 -3 6 C-3 5.34 -3 4.68 -3 4 C-3.66 4 -4.32 4 -5 4 C-5.33 4.66 -5.66 5.32 -6 6 C-6 4.35 -6 2.7 -6 1 C-3.92446352 0.4465236 -2.15634036 0 0 0 Z " fill="#A3A3A2" transform="translate(363,399)"/>
<path d="M0 0 C0.33 0 0.66 0 1 0 C1 1.65 1 3.3 1 5 C2.65 4.67 4.3 4.34 6 4 C6 4.66 6 5.32 6 6 C4.35 6.33 2.7 6.66 1 7 C1.33 8.32 1.66 9.64 2 11 C-0.31 10.34 -2.62 9.68 -5 9 C-4.360625 8.443125 -3.72125 7.88625 -3.0625 7.3125 C-0.80319013 4.77933439 -0.36850953 3.31658576 0 0 Z " fill="#8C8C8B" transform="translate(324,189)"/>
<path d="M0 0 C0.66 0 1.32 0 2 0 C2 0.99 2 1.98 2 3 C3.32 3 4.64 3 6 3 C6 3.66 6 4.32 6 5 C4.88625 5.309375 3.7725 5.61875 2.625 5.9375 C-0.7945155 6.82326483 -0.7945155 6.82326483 -3 8 C-3.66 6.35 -4.32 4.7 -5 3 C-2.525 3.99 -2.525 3.99 0 5 C0 3.35 0 1.7 0 0 Z " fill="#A3A3A2" transform="translate(312,178)"/>
<path d="M0 0 C-1.98 0.99 -3.96 1.98 -6 3 C-6 4.65 -6 6.3 -6 8 C-6.66 8 -7.32 8 -8 8 C-9.4606285 5.35261084 -10 4.10551666 -10 1 C-3.375 -1.125 -3.375 -1.125 0 0 Z " fill="#AAAAA9" transform="translate(344,161)"/>
<path d="M0 0 C1.65 0 3.3 0 5 0 C4.67 1.65 4.34 3.3 4 5 C2.35 5 0.7 5 -1 5 C-0.67 3.35 -0.34 1.7 0 0 Z " fill="#878786" transform="translate(246,206)"/>
<path d="M0 0 C0.99 0 1.98 0 3 0 C3 0.66 3 1.32 3 2 C3.66 2.33 4.32 2.66 5 3 C4.34 3 3.68 3 3 3 C3 3.66 3 4.32 3 5 C-0.375 5.125 -0.375 5.125 -4 5 C-4.66 4.34 -5.32 3.68 -6 3 C-3 2 -3 2 0 3 C0 2.01 0 1.02 0 0 Z " fill="#7E7D7C" transform="translate(334,173)"/>
<path d="M0 0 C5.75 0.75 5.75 0.75 8 3 C8.3125 5.5 8.3125 5.5 8 8 C7.01 8.66 6.02 9.32 5 10 C4.67 9.34 4.34 8.68 4 8 C4.66 8 5.32 8 6 8 C4.8321734 4.18586998 4.8321734 4.18586998 1.875 1.6875 C1.25625 1.460625 0.6375 1.23375 0 1 C0 0.67 0 0.34 0 0 Z " fill="#949493" transform="translate(314,185)"/>
<path d="M0 0 C1.65 0 3.3 0 5 0 C4.67 1.65 4.34 3.3 4 5 C2.35 4.67 0.7 4.34 -1 4 C-0.67 2.68 -0.34 1.36 0 0 Z " fill="#8B8A8A" transform="translate(313,152)"/>
<path d="M0 0 C0.91007812 0.00902344 1.82015625 0.01804688 2.7578125 0.02734375 C3.45648438 0.03894531 4.15515625 0.05054688 4.875 0.0625 C4.545 0.7225 4.215 1.3825 3.875 2.0625 C2.225 2.0625 0.575 2.0625 -1.125 2.0625 C-1.125 2.7225 -1.125 3.3825 -1.125 4.0625 C-2.115 4.0625 -3.105 4.0625 -4.125 4.0625 C-4.125 3.4025 -4.125 2.7425 -4.125 2.0625 C-5.115 1.7325 -6.105 1.4025 -7.125 1.0625 C-4.60024538 -0.19987731 -2.81299534 -0.03606404 0 0 Z " fill="#A7A7A6" transform="translate(284.125,152.9375)"/>
<path d="M0 0 C0.99 0 1.98 0 3 0 C3.33 1.98 3.66 3.96 4 6 C2.35 6 0.7 6 -1 6 C-0.67 4.02 -0.34 2.04 0 0 Z " fill="#9D9D9C" transform="translate(302,399)"/>
<path d="M0 0 C0.66 0 1.32 0 2 0 C2.66 1.98 3.32 3.96 4 6 C3.01 5.67 2.02 5.34 1 5 C1 8.3 1 11.6 1 15 C0.67 15 0.34 15 0 15 C0 10.05 0 5.1 0 0 Z " fill="#6F6E6D" transform="translate(262,305)"/>
<path d="M0 0 C0.66 0 1.32 0 2 0 C2.33 1.98 2.66 3.96 3 6 C1.35 6 -0.3 6 -2 6 C-1.125 1.125 -1.125 1.125 0 0 Z " fill="#A0A09F" transform="translate(252,399)"/>
<path d="M0 0 C0.99 0.33 1.98 0.66 3 1 C2.34 1 1.68 1 1 1 C1.33 1.99 1.66 2.98 2 4 C2.66 4.33 3.32 4.66 4 5 C3.67 5.66 3.34 6.32 3 7 C0.125 7.125 0.125 7.125 -3 7 C-3.66 6.34 -4.32 5.68 -5 5 C-4.01 5 -3.02 5 -2 5 C-1.34 3.35 -0.68 1.7 0 0 Z " fill="#6E6D6C" transform="translate(356,399)"/>
<path d="M0 0 C1.32 0 2.64 0 4 0 C4.33 1.98 4.66 3.96 5 6 C3.35 5.67 1.7 5.34 0 5 C0 3.35 0 1.7 0 0 Z " fill="#A4A4A3" transform="translate(368,400)"/>
<path d="M0 0 C2.475 0.495 2.475 0.495 5 1 C4.67 2.32 4.34 3.64 4 5 C2.68 4.67 1.36 4.34 0 4 C0 2.68 0 1.36 0 0 Z " fill="#898987" transform="translate(341,203)"/>
<path d="M0 0 C0 3 0 3 -1.2421875 4.60546875 C-1.78101563 5.12753906 -2.31984375 5.64960938 -2.875 6.1875 C-3.40867187 6.71730469 -3.94234375 7.24710938 -4.4921875 7.79296875 C-6 9 -6 9 -8 9 C-6.4169423 4.7257442 -3.49431596 2.73468206 0 0 Z " fill="#4E4D4B" transform="translate(306,199)"/>
<path d="M0 0 C1.65 0 3.3 0 5 0 C4.67 1.65 4.34 3.3 4 5 C2.68 5 1.36 5 0 5 C0 3.35 0 1.7 0 0 Z " fill="#A4A3A2" transform="translate(295,400)"/>
<path d="M0 0 C1.98 0.99 1.98 0.99 4 2 C4 1.34 4 0.68 4 0 C4.66 0 5.32 0 6 0 C6 1.65 6 3.3 6 5 C5.34 5 4.68 5 4 5 C4 4.34 4 3.68 4 3 C3.01 3 2.02 3 1 3 C0.67 3.66 0.34 4.32 0 5 C0 3.35 0 1.7 0 0 Z " fill="#AAAAA9" transform="translate(308,400)"/>
<path d="M0 0 C0.66 0 1.32 0 2 0 C2 0.66 2 1.32 2 2 C2.66 2 3.32 2 4 2 C4.33 1.34 4.66 0.68 5 0 C5 1.65 5 3.3 5 5 C3.35 5 1.7 5 0 5 C0 3.35 0 1.7 0 0 Z " fill="#B8B8B7" transform="translate(339,400)"/>
<path d="M0 0 C0.99 0.33 1.98 0.66 3 1 C3 2.32 3 3.64 3 5 C1.68 5.33 0.36 5.66 -1 6 C-1.042721 4.33388095 -1.04063832 2.66617115 -1 1 C-0.67 0.67 -0.34 0.34 0 0 Z " fill="#A5A5A4" transform="translate(333,399)"/>
<path d="M0 0 C0.99 0.33 1.98 0.66 3 1 C3 2.32 3 3.64 3 5 C1.68 5.33 0.36 5.66 -1 6 C-1.042721 4.33388095 -1.04063832 2.66617115 -1 1 C-0.67 0.67 -0.34 0.34 0 0 Z " fill="#A5A5A4" transform="translate(317,399)"/>
<path d="M0 0 C1.98 0.99 1.98 0.99 4 2 C4.33 1.34 4.66 0.68 5 0 C5 1.65 5 3.3 5 5 C4.67 4.34 4.34 3.68 4 3 C3.34 3 2.68 3 2 3 C2 3.99 2 4.98 2 6 C1.34 6 0.68 6 0 6 C0 4.02 0 2.04 0 0 Z " fill="#A7A6A6" transform="translate(270,400)"/>
<path d="M0 0 C1.98 0 3.96 0 6 0 C6 0.99 6 1.98 6 3 C3.69 3 1.38 3 -1 3 C-0.67 2.01 -0.34 1.02 0 0 Z " fill="#6A6968" transform="translate(248,231)"/>
<path d="M0 0 C0.66 0.66 1.32 1.32 2 2 C1.96712417 4.72869407 1.43602229 7.2966618 1 10 C0.34 9.34 -0.32 8.68 -1 8 C-0.96712417 5.27130593 -0.43602229 2.7033382 0 0 Z " fill="#858483" transform="translate(291,223)"/>
<path d="M0 0 C0.66 0.33 1.32 0.66 2 1 C-0.31 3.31 -2.62 5.62 -5 8 C-5 5 -5 5 -2.5 2.3125 C-1.675 1.549375 -0.85 0.78625 0 0 Z " fill="#3E3D3B" transform="translate(329,153)"/>
</svg>
